<?xml version="1.0"?><svg viewBox="0 0 64 64" xmlns="http://www.w3.org/2000/svg"><title/><g id="bread"><path d="M45,61a4,4,0,0,0,4-4V28.79a4.08,4.08,0,0,1,1.26-2.91A11,11,0,0,0,54,18C54,9.72,42.81,3,29,3S4,9.72,4,18a11,11,0,0,0,3.74,7.88A4.08,4.08,0,0,1,9,28.79V57a4,4,0,0,0,4,4Z" style="fill:none;stroke:#000;stroke-linecap:round;stroke-linejoin:round;stroke-width:2px"/><path d="M45,61h6a4,4,0,0,0,4-4V28.79a4.08,4.08,0,0,1,1.26-2.91A11,11,0,0,0,60,18C60,9.72,48.81,3,35,3H28" style="fill:none;stroke:#000;stroke-linecap:round;stroke-linejoin:round;stroke-width:2px"/><line style="fill:none;stroke:#000;stroke-linecap:round;stroke-linejoin:round;stroke-width:2px" x1="39" x2="40" y1="21" y2="21"/><line style="fill:none;stroke:#000;stroke-linecap:round;stroke-linejoin:round;stroke-width:2px" x1="22" x2="22" y1="32" y2="31"/><line style="fill:none;stroke:#000;stroke-linecap:round;stroke-linejoin:round;stroke-width:2px" x1="14" x2="15" y1="48" y2="48"/><line style="fill:none;stroke:#000;stroke-linecap:round;stroke-linejoin:round;stroke-width:2px" x1="32" x2="33" y1="40" y2="39"/><line style="fill:none;stroke:#000;stroke-linecap:round;stroke-linejoin:round;stroke-width:2px" x1="17" x2="16" y1="16" y2="15"/><line style="fill:none;stroke:#000;stroke-linecap:round;stroke-linejoin:round;stroke-width:2px" x1="43" x2="43" y1="52" y2="51"/><line style="fill:none;stroke:#000;stroke-linecap:round;stroke-linejoin:round;stroke-width:2px" x1="32" x2="33" y1="11" y2="10"/></g></svg>