<svg xmlns="http://www.w3.org/2000/svg" xmlns:xlink="http://www.w3.org/1999/xlink" width="500" zoomAndPan="magnify" viewBox="0 0 375 302.999993" height="404" preserveAspectRatio="xMidYMid meet" version="1.0"><defs><clipPath id="ddeb30e7d2"><path d="M 178.285156 230.796875 L 204.535156 230.796875 L 204.535156 257.046875 L 178.285156 257.046875 Z M 178.285156 230.796875 " clip-rule="nonzero"/></clipPath><clipPath id="4a654b77a9"><path d="M 5.96875 7.410156 L 368.96875 7.410156 L 368.96875 295.410156 L 5.96875 295.410156 Z M 5.96875 7.410156 " clip-rule="nonzero"/></clipPath></defs><g clip-path="url(#ddeb30e7d2)"><path fill="#000000" d="M 204.535156 243.921875 C 204.535156 244.785156 204.449219 245.640625 204.28125 246.484375 C 204.113281 247.328125 203.867188 248.148438 203.535156 248.945312 C 203.207031 249.742188 202.800781 250.5 202.324219 251.214844 C 201.84375 251.933594 201.300781 252.59375 200.691406 253.203125 C 200.082031 253.8125 199.417969 254.359375 198.703125 254.835938 C 197.984375 255.316406 197.230469 255.71875 196.433594 256.050781 C 195.636719 256.378906 194.816406 256.628906 193.96875 256.796875 C 193.125 256.964844 192.269531 257.046875 191.410156 257.046875 C 190.546875 257.046875 189.695312 256.964844 188.847656 256.796875 C 188.003906 256.628906 187.183594 256.378906 186.386719 256.050781 C 185.589844 255.71875 184.835938 255.316406 184.117188 254.835938 C 183.402344 254.359375 182.738281 253.8125 182.128906 253.203125 C 181.519531 252.59375 180.976562 251.933594 180.496094 251.214844 C 180.019531 250.5 179.613281 249.742188 179.285156 248.945312 C 178.953125 248.148438 178.703125 247.328125 178.535156 246.484375 C 178.367188 245.640625 178.285156 244.785156 178.285156 243.921875 C 178.285156 243.0625 178.367188 242.207031 178.535156 241.363281 C 178.703125 240.519531 178.953125 239.695312 179.285156 238.902344 C 179.613281 238.105469 180.019531 237.347656 180.496094 236.632812 C 180.976562 235.914062 181.519531 235.253906 182.128906 234.644531 C 182.738281 234.035156 183.402344 233.488281 184.117188 233.011719 C 184.835938 232.53125 185.589844 232.128906 186.386719 231.796875 C 187.183594 231.46875 188.003906 231.21875 188.847656 231.050781 C 189.695312 230.882812 190.546875 230.796875 191.410156 230.796875 C 192.269531 230.796875 193.125 230.882812 193.96875 231.050781 C 194.816406 231.21875 195.636719 231.46875 196.433594 231.796875 C 197.230469 232.128906 197.984375 232.53125 198.703125 233.011719 C 199.417969 233.488281 200.082031 234.035156 200.691406 234.644531 C 201.300781 235.253906 201.84375 235.914062 202.324219 236.632812 C 202.800781 237.347656 203.207031 238.105469 203.535156 238.902344 C 203.867188 239.695312 204.113281 240.519531 204.28125 241.363281 C 204.449219 242.207031 204.535156 243.0625 204.535156 243.921875 Z M 204.535156 243.921875 " fill-opacity="1" fill-rule="nonzero"/></g><g clip-path="url(#4a654b77a9)"><path fill="#b96d2a" d="M 153.296875 81.644531 L 184.664062 81.644531 L 184.664062 113.011719 L 153.296875 113.011719 Z M 315.800781 59.789062 L 329.089844 59.789062 L 329.089844 121.582031 L 369.027344 152.949219 L 369.027344 169.140625 L 329.089844 138.71875 L 329.089844 211.835938 C 331.921875 211.835938 334.824219 213.726562 337.65625 214.667969 L 339.546875 215.613281 L 346.152344 222.21875 L 348.042969 225.050781 L 348.984375 225.050781 L 350.875 228.828125 L 350.875 229.773438 L 351.816406 229.773438 L 351.816406 230.714844 L 352.761719 232.605469 L 353.707031 234.492188 L 353.707031 236.378906 L 354.648438 237.324219 L 354.648438 238.265625 L 355.59375 241.097656 L 355.59375 244.875 L 356.535156 246.761719 L 356.535156 250.539062 C 356.535156 254.316406 356.535156 254.316406 356.535156 256.273438 C 356.535156 256.273438 356.535156 256.273438 356.535156 257.21875 L 355.59375 260.050781 L 355.59375 263.828125 L 354.648438 266.660156 L 354.648438 267.601562 L 353.707031 269.492188 L 352.761719 271.378906 L 352.761719 272.324219 L 351.816406 274.210938 L 351.816406 275.152344 L 350.875 275.152344 L 350.875 276.097656 L 349.929688 277.042969 L 349.929688 277.984375 L 348.984375 279.875 L 348.042969 279.875 L 347.097656 281.761719 L 346.152344 282.707031 L 345.210938 284.59375 L 344.339844 284.59375 L 342.449219 287.425781 L 341.507812 288.371094 L 340.5625 288.371094 L 339.617188 289.3125 L 338.675781 290.257812 L 337.730469 290.257812 L 337.730469 291.203125 L 336.785156 291.203125 L 333.953125 292.144531 L 333.011719 293.089844 L 331.121094 294.03125 L 328.292969 294.03125 L 327.347656 294.976562 L 322.628906 294.976562 C 322.628906 294.976562 322.628906 294.976562 321.683594 294.976562 L 317.90625 294.976562 L 316.964844 294.03125 L 314.132812 294.03125 L 313.1875 293.089844 L 311.300781 293.089844 L 310.355469 292.144531 L 309.414062 292.144531 L 308.46875 291.203125 L 307.523438 291.203125 L 306.582031 290.257812 L 305.636719 289.3125 L 304.691406 288.371094 L 303.75 287.425781 L 299.972656 283.648438 L 299.027344 282.707031 L 298.085938 281.761719 L 297.140625 280.816406 L 295.253906 277.984375 L 294.308594 276.097656 L 292.421875 271.378906 L 291.476562 269.492188 L 291.476562 268.546875 L 290.535156 268.546875 L 290.535156 266.660156 L 289.589844 263.828125 L 289.589844 260.996094 L 288.644531 259.105469 L 288.644531 249.59375 C 288.644531 249.59375 288.644531 249.59375 288.644531 248.652344 L 289.589844 245.820312 L 289.589844 241.316406 L 290.535156 239.429688 L 290.535156 238.484375 L 291.476562 235.652344 L 292.421875 234.710938 L 292.421875 232.820312 L 293.363281 231.878906 L 294.308594 229.046875 L 295.253906 228.101562 L 296.195312 227.15625 L 296.195312 226.070312 L 297.140625 225.125 L 297.140625 224.179688 L 299.027344 222.292969 L 300.917969 220.40625 L 301.859375 218.515625 L 302.804688 218.515625 L 303.75 217.574219 L 305.636719 215.683594 L 306.582031 215.683594 L 307.523438 214.742188 C 310.355469 212.851562 313.261719 211.910156 316.09375 211.910156 L 316.09375 128.332031 L 187.496094 24.644531 L 59.191406 128.1875 L 59.191406 210.894531 C 67.761719 212.78125 76.328125 217.574219 79.160156 227.085938 L 80.105469 228.972656 L 80.105469 229.917969 L 81.046875 229.917969 L 81.046875 234.636719 L 81.992188 288.804688 C 81.992188 288.804688 81.046875 289.75 81.046875 290.691406 L 80.105469 292.582031 L 79.160156 293.523438 L 77.273438 295.414062 L 76.328125 295.414062 L 70.59375 294.46875 L 67.761719 292.582031 L 67.761719 291.636719 L 66.816406 290.691406 L 66.816406 289.75 L 65.871094 287.863281 C 65.871094 286.917969 65.871094 286.917969 65.871094 286.917969 L 65.871094 246.980469 C 65.871094 243.207031 65.871094 242.261719 63.039062 242.261719 C 58.320312 242.261719 59.265625 249.886719 59.265625 254.605469 L 59.265625 290.691406 L 58.320312 292.582031 L 57.375 293.523438 L 56.433594 294.46875 L 55.488281 294.46875 L 54.542969 295.414062 L 49.824219 295.414062 L 48.882812 294.46875 L 47.9375 294.46875 L 45.105469 291.636719 L 45.105469 288.804688 L 44.160156 288.804688 L 44.160156 246.980469 C 44.160156 243.207031 44.160156 242.261719 41.328125 242.261719 C 38.496094 242.261719 37.554688 244.148438 37.554688 246.980469 L 37.554688 285.972656 C 37.554688 288.804688 38.496094 290.691406 36.609375 292.652344 L 33.777344 294.542969 L 32.832031 295.484375 C 31.890625 295.484375 30.945312 295.484375 30.003906 295.484375 L 27.171875 295.484375 L 27.171875 294.542969 L 26.226562 294.542969 L 24.339844 291.710938 L 23.394531 290.765625 L 23.394531 288.878906 L 22.449219 286.988281 L 22.449219 241.316406 L 23.394531 236.597656 L 23.394531 230.933594 L 24.339844 229.988281 L 24.339844 227.085938 L 25.28125 227.085938 C 28.113281 218.515625 36.683594 212.851562 45.25 210.894531 L 45.25 138.71875 L 5.96875 169.070312 L 5.96875 152.875 L 44.960938 121.507812 L 44.960938 59.789062 L 59.191406 59.789062 L 59.191406 110.179688 L 187.496094 7.507812 L 315.800781 110.179688 Z M 105.734375 272.6875 L 273.976562 272.6875 L 273.035156 270.796875 C 272.089844 260.339844 270.203125 251.773438 266.351562 243.207031 C 262.578125 233.691406 256.839844 226.070312 250.160156 219.460938 C 242.535156 211.835938 234.984375 206.171875 225.472656 201.378906 C 216.90625 197.605469 206.449219 194.699219 195.992188 193.757812 L 195.046875 192.8125 L 195.992188 192.8125 L 195.992188 191.867188 C 195.992188 190.925781 195.992188 190.925781 195.992188 190.925781 L 195.992188 189.980469 C 196.9375 189.980469 196.9375 189.035156 196.9375 189.035156 C 196.9375 188.09375 195.992188 187.148438 195.992188 186.203125 C 195.992188 185.261719 195.046875 184.316406 194.105469 184.316406 C 194.105469 183.375 193.160156 182.429688 192.214844 182.429688 C 191.273438 182.429688 190.328125 182.429688 189.386719 182.429688 C 188.441406 182.429688 187.496094 182.429688 186.554688 182.429688 C 185.609375 182.429688 185.609375 183.375 184.664062 184.316406 C 183.722656 184.316406 183.722656 185.261719 182.777344 186.203125 C 182.777344 187.148438 182.777344 188.09375 182.777344 189.035156 L 182.777344 190.925781 C 182.777344 190.925781 182.777344 190.925781 182.777344 191.867188 L 183.722656 191.867188 L 183.722656 193.757812 C 182.777344 193.757812 182.777344 193.757812 182.777344 193.757812 C 172.320312 194.699219 162.808594 197.53125 153.296875 201.378906 C 144.730469 206.101562 136.160156 211.835938 128.609375 219.460938 C 122.871094 226.140625 117.207031 233.691406 113.433594 243.207031 C 108.714844 251.773438 106.753906 260.339844 105.808594 270.796875 L 105.808594 272.6875 Z M 258.800781 263.171875 C 258.800781 261.285156 257.859375 258.453125 256.914062 255.550781 C 255.96875 253.660156 255.027344 250.828125 254.082031 248.867188 C 252.195312 245.09375 250.304688 241.246094 248.34375 237.46875 C 245.515625 234.636719 243.625 231.734375 240.722656 228.902344 C 239.777344 227.957031 238.832031 227.011719 237.890625 226.070312 C 237.890625 226.070312 236.945312 225.125 236 224.179688 C 235.058594 223.238281 234.113281 221.347656 236 219.460938 C 236.945312 218.515625 238.832031 218.515625 240.722656 219.460938 C 240.722656 220.40625 241.664062 220.40625 242.609375 221.347656 C 243.554688 222.292969 244.496094 223.238281 245.441406 224.179688 C 248.273438 227.011719 251.175781 230.859375 254.007812 234.636719 C 255.898438 237.46875 257.785156 241.316406 259.746094 246.035156 C 261.632812 247.925781 262.578125 250.757812 263.519531 253.660156 C 264.464844 256.492188 264.464844 259.398438 265.410156 262.230469 C 265.410156 264.117188 264.464844 266.003906 262.578125 266.003906 C 260.691406 266.003906 258.800781 265.0625 258.800781 263.171875 Z M 222.640625 215.613281 C 221.695312 214.667969 220.753906 214.667969 219.808594 213.726562 C 217.921875 212.78125 216.976562 210.894531 217.921875 209.003906 C 218.863281 208.0625 220.753906 207.117188 222.640625 208.0625 C 223.585938 208.0625 224.527344 209.003906 226.417969 209.003906 C 227.359375 209.949219 228.304688 210.894531 229.25 211.835938 C 231.136719 212.78125 231.136719 214.667969 230.191406 215.613281 C 229.25 217.5 227.359375 218.445312 226.417969 217.5 C 224.527344 216.628906 223.585938 215.613281 222.640625 215.613281 Z M 57.304688 293.597656 Z M 24.046875 291.710938 Z M 301.570312 218.515625 Z M 351.890625 275.515625 Z M 288.210938 259.398438 Z M 97.242188 282.199219 L 277.824219 282.199219 L 277.824219 295.484375 L 97.242188 295.484375 Z M 194.175781 120.636719 L 225.546875 120.636719 L 225.546875 152.003906 L 194.175781 152.003906 Z M 153.296875 120.636719 L 184.664062 120.636719 L 184.664062 152.003906 L 153.296875 152.003906 Z M 194.175781 81.644531 L 225.546875 81.644531 L 225.546875 113.011719 L 194.175781 113.011719 Z M 194.175781 81.644531 " fill-opacity="1" fill-rule="nonzero"/></g></svg>