<svg xmlns="http://www.w3.org/2000/svg" xmlns:xlink="http://www.w3.org/1999/xlink" width="500" zoomAndPan="magnify" viewBox="0 0 375 272.999983" height="364" preserveAspectRatio="xMidYMid meet" version="1.0"><defs><g/><clipPath id="ebe70cbe5e"><path d="M 65.125 0.890625 L 311.636719 0.890625 L 311.636719 196.605469 L 65.125 196.605469 Z M 65.125 0.890625 " clip-rule="nonzero"/></clipPath><clipPath id="351b8e9288"><rect x="0" width="375" y="0" height="271"/></clipPath></defs><g transform="matrix(1, 0, 0, 1, 0, 2)"><g clip-path="url(#351b8e9288)"><g fill="#4e423d" fill-opacity="1"><g transform="translate(0.350168, 256.831373)"><g><path d="M 40.15625 -42.078125 L 40.15625 0 L 29.90625 0 L 29.90625 -17.328125 L 13.96875 -17.328125 L 13.96875 0 L 3.71875 0 L 3.71875 -42.078125 L 13.96875 -42.078125 L 13.96875 -25.59375 L 29.90625 -25.59375 L 29.90625 -42.078125 Z M 40.15625 -42.078125 "/></g></g></g><g fill="#4e423d" fill-opacity="1"><g transform="translate(44.162655, 256.831373)"><g><path d="M 13.78125 -42.078125 L 13.78125 -16.90625 C 13.78125 -14.382812 14.398438 -12.441406 15.640625 -11.078125 C 16.878906 -9.722656 18.695312 -9.046875 21.09375 -9.046875 C 23.488281 -9.046875 25.328125 -9.722656 26.609375 -11.078125 C 27.890625 -12.441406 28.53125 -14.382812 28.53125 -16.90625 L 28.53125 -42.078125 L 38.78125 -42.078125 L 38.78125 -16.96875 C 38.78125 -13.207031 37.976562 -10.023438 36.375 -7.421875 C 34.78125 -4.828125 32.632812 -2.867188 29.9375 -1.546875 C 27.238281 -0.234375 24.234375 0.421875 20.921875 0.421875 C 17.597656 0.421875 14.628906 -0.222656 12.015625 -1.515625 C 9.398438 -2.816406 7.332031 -4.773438 5.8125 -7.390625 C 4.289062 -10.015625 3.53125 -13.207031 3.53125 -16.96875 L 3.53125 -42.078125 Z M 13.78125 -42.078125 "/></g></g></g><g fill="#4e423d" fill-opacity="1"><g transform="translate(86.416832, 256.831373)"><g><path d="M 18.9375 0.421875 C 15.863281 0.421875 13.109375 -0.078125 10.671875 -1.078125 C 8.234375 -2.078125 6.285156 -3.554688 4.828125 -5.515625 C 3.367188 -7.472656 2.597656 -9.832031 2.515625 -12.59375 L 13.421875 -12.59375 C 13.585938 -11.03125 14.128906 -9.835938 15.046875 -9.015625 C 15.960938 -8.203125 17.160156 -7.796875 18.640625 -7.796875 C 20.160156 -7.796875 21.359375 -8.144531 22.234375 -8.84375 C 23.117188 -9.539062 23.5625 -10.507812 23.5625 -11.75 C 23.5625 -12.789062 23.207031 -13.648438 22.5 -14.328125 C 21.800781 -15.003906 20.941406 -15.5625 19.921875 -16 C 18.910156 -16.4375 17.460938 -16.9375 15.578125 -17.5 C 12.867188 -18.34375 10.65625 -19.179688 8.9375 -20.015625 C 7.21875 -20.859375 5.738281 -22.097656 4.5 -23.734375 C 3.257812 -25.367188 2.640625 -27.507812 2.640625 -30.15625 C 2.640625 -34.0625 4.054688 -37.125 6.890625 -39.34375 C 9.722656 -41.5625 13.421875 -42.671875 17.984375 -42.671875 C 22.617188 -42.671875 26.351562 -41.5625 29.1875 -39.34375 C 32.019531 -37.125 33.539062 -34.039062 33.75 -30.09375 L 22.65625 -30.09375 C 22.570312 -31.445312 22.070312 -32.515625 21.15625 -33.296875 C 20.238281 -34.078125 19.0625 -34.46875 17.625 -34.46875 C 16.382812 -34.46875 15.382812 -34.132812 14.625 -33.46875 C 13.863281 -32.8125 13.484375 -31.863281 13.484375 -30.625 C 13.484375 -29.269531 14.125 -28.210938 15.40625 -27.453125 C 16.6875 -26.691406 18.679688 -25.875 21.390625 -25 C 24.109375 -24.070312 26.316406 -23.1875 28.015625 -22.34375 C 29.710938 -21.507812 31.179688 -20.289062 32.421875 -18.6875 C 33.660156 -17.09375 34.28125 -15.039062 34.28125 -12.53125 C 34.28125 -10.132812 33.671875 -7.957031 32.453125 -6 C 31.234375 -4.039062 29.460938 -2.476562 27.140625 -1.3125 C 24.828125 -0.15625 22.09375 0.421875 18.9375 0.421875 Z M 18.9375 0.421875 "/></g></g></g><g fill="#4e423d" fill-opacity="1"><g transform="translate(123.276861, 256.831373)"><g/></g></g><g fill="#4e423d" fill-opacity="1"><g transform="translate(135.983086, 256.831373)"><g><path d="M 29.1875 -21.578125 C 31.625 -21.054688 33.582031 -19.847656 35.0625 -17.953125 C 36.539062 -16.054688 37.28125 -13.890625 37.28125 -11.453125 C 37.28125 -7.929688 36.050781 -5.140625 33.59375 -3.078125 C 31.132812 -1.023438 27.707031 0 23.3125 0 L 3.71875 0 L 3.71875 -42.078125 L 22.65625 -42.078125 C 26.925781 -42.078125 30.269531 -41.097656 32.6875 -39.140625 C 35.113281 -37.179688 36.328125 -34.523438 36.328125 -31.171875 C 36.328125 -28.691406 35.675781 -26.628906 34.375 -24.984375 C 33.070312 -23.347656 31.34375 -22.210938 29.1875 -21.578125 Z M 13.96875 -25.046875 L 20.671875 -25.046875 C 22.359375 -25.046875 23.648438 -25.414062 24.546875 -26.15625 C 25.441406 -26.894531 25.890625 -27.984375 25.890625 -29.421875 C 25.890625 -30.867188 25.441406 -31.96875 24.546875 -32.71875 C 23.648438 -33.476562 22.359375 -33.859375 20.671875 -33.859375 L 13.96875 -33.859375 Z M 21.515625 -8.265625 C 23.234375 -8.265625 24.5625 -8.65625 25.5 -9.4375 C 26.4375 -10.21875 26.90625 -11.347656 26.90625 -12.828125 C 26.90625 -14.304688 26.414062 -15.460938 25.4375 -16.296875 C 24.457031 -17.140625 23.109375 -17.5625 21.390625 -17.5625 L 13.96875 -17.5625 L 13.96875 -8.265625 Z M 21.515625 -8.265625 "/></g></g></g><g fill="#4e423d" fill-opacity="1"><g transform="translate(175.480251, 256.831373)"><g><path d="M 29.90625 -7.4375 L 14.203125 -7.4375 L 11.6875 0 L 0.953125 0 L 16.1875 -42.078125 L 28.046875 -42.078125 L 43.28125 0 L 32.421875 0 Z M 27.265625 -15.34375 L 22.0625 -30.75 L 16.90625 -15.34375 Z M 27.265625 -15.34375 "/></g></g></g><g fill="#4e423d" fill-opacity="1"><g transform="translate(219.652366, 256.831373)"><g><path d="M 28.109375 0 L 13.96875 -18.578125 L 13.96875 0 L 3.71875 0 L 3.71875 -42.078125 L 13.96875 -42.078125 L 13.96875 -23.609375 L 27.984375 -42.078125 L 40.03125 -42.078125 L 23.734375 -21.453125 L 40.640625 0 Z M 28.109375 0 "/></g></g></g><g fill="#4e423d" fill-opacity="1"><g transform="translate(261.427051, 256.831373)"><g><path d="M 13.96875 -33.859375 L 13.96875 -25.359375 L 27.6875 -25.359375 L 27.6875 -17.4375 L 13.96875 -17.4375 L 13.96875 -8.21875 L 29.484375 -8.21875 L 29.484375 0 L 3.71875 0 L 3.71875 -42.078125 L 29.484375 -42.078125 L 29.484375 -33.859375 Z M 13.96875 -33.859375 "/></g></g></g><g fill="#4e423d" fill-opacity="1"><g transform="translate(293.851881, 256.831373)"><g><path d="M 25.171875 0 L 16.421875 -15.890625 L 13.96875 -15.890625 L 13.96875 0 L 3.71875 0 L 3.71875 -42.078125 L 20.921875 -42.078125 C 24.234375 -42.078125 27.054688 -41.492188 29.390625 -40.328125 C 31.734375 -39.171875 33.484375 -37.582031 34.640625 -35.5625 C 35.796875 -33.550781 36.375 -31.304688 36.375 -28.828125 C 36.375 -26.035156 35.582031 -23.539062 34 -21.34375 C 32.425781 -19.144531 30.101562 -17.582031 27.03125 -16.65625 L 36.734375 0 Z M 13.96875 -23.140625 L 20.3125 -23.140625 C 22.195312 -23.140625 23.609375 -23.597656 24.546875 -24.515625 C 25.484375 -25.429688 25.953125 -26.726562 25.953125 -28.40625 C 25.953125 -30.007812 25.484375 -31.269531 24.546875 -32.1875 C 23.609375 -33.101562 22.195312 -33.5625 20.3125 -33.5625 L 13.96875 -33.5625 Z M 13.96875 -23.140625 "/></g></g></g><g fill="#4e423d" fill-opacity="1"><g transform="translate(332.92952, 256.831373)"><g><path d="M 39.796875 -42.078125 L 25.234375 -13.90625 L 25.234375 0 L 14.984375 0 L 14.984375 -13.90625 L 0.421875 -42.078125 L 12.046875 -42.078125 L 20.203125 -24.453125 L 28.296875 -42.078125 Z M 39.796875 -42.078125 "/></g></g></g><g clip-path="url(#ebe70cbe5e)"><path fill="#b96d2a" d="M 165.046875 51.238281 L 186.320312 51.238281 L 186.320312 72.511719 L 165.046875 72.511719 Z M 275.257812 36.414062 L 284.269531 36.414062 L 284.269531 78.324219 L 311.355469 99.597656 L 311.355469 110.582031 L 284.269531 89.945312 L 284.269531 139.535156 C 286.191406 139.535156 288.160156 140.816406 290.082031 141.457031 L 291.363281 142.097656 L 293.28125 144.019531 L 295.84375 146.578125 L 297.125 148.5 L 297.761719 148.5 L 299.042969 151.058594 L 299.042969 151.699219 L 299.683594 151.699219 L 299.683594 152.339844 L 300.964844 154.902344 L 300.964844 156.183594 L 301.605469 156.820312 L 301.605469 157.460938 L 302.246094 159.382812 L 302.246094 161.945312 L 302.886719 163.222656 L 302.886719 165.785156 C 302.886719 168.347656 302.886719 168.347656 302.886719 169.675781 C 302.886719 169.675781 302.886719 169.675781 302.886719 170.316406 L 302.246094 172.234375 L 302.246094 174.796875 L 301.605469 176.71875 L 301.605469 177.359375 L 300.964844 178.636719 L 300.324219 179.917969 L 300.324219 180.558594 L 299.683594 181.839844 L 299.683594 182.480469 L 299.042969 182.480469 L 299.042969 183.121094 L 298.402344 183.757812 L 298.402344 184.398438 L 297.761719 185.679688 L 297.125 185.679688 L 296.484375 186.960938 L 295.84375 187.601562 L 295.203125 188.882812 L 294.613281 188.882812 L 293.332031 190.800781 L 292.691406 191.441406 L 292.050781 191.441406 L 290.769531 192.722656 L 290.128906 192.722656 L 290.128906 193.363281 L 289.488281 193.363281 L 287.570312 194.003906 L 286.929688 194.644531 L 285.648438 195.285156 L 283.726562 195.285156 L 283.089844 195.921875 L 279.886719 195.921875 C 279.886719 195.921875 279.886719 195.921875 279.246094 195.921875 L 276.6875 195.921875 L 276.046875 195.285156 L 274.125 195.285156 L 273.484375 194.644531 L 272.203125 194.644531 L 271.566406 194.003906 L 270.925781 194.003906 L 270.285156 193.363281 L 269.644531 193.363281 L 262.601562 186.320312 L 261.320312 184.398438 L 260.679688 183.121094 L 259.402344 179.917969 L 258.761719 178.636719 L 258.761719 177.996094 L 258.121094 177.996094 L 258.121094 176.71875 L 257.480469 174.796875 L 257.480469 172.875 L 256.839844 171.597656 L 256.839844 165.144531 C 256.839844 165.144531 256.839844 165.144531 256.839844 164.503906 L 257.480469 162.582031 L 257.480469 159.53125 L 258.121094 158.25 L 258.121094 157.609375 L 258.761719 155.691406 L 259.402344 155.050781 L 259.402344 153.769531 L 260.042969 153.128906 L 260.679688 151.207031 L 261.320312 150.566406 L 261.960938 149.929688 L 261.960938 149.1875 L 262.601562 148.550781 L 262.601562 147.910156 L 265.164062 145.347656 L 265.804688 144.066406 L 266.441406 144.066406 L 267.082031 143.425781 L 268.363281 142.148438 L 269.003906 142.148438 L 269.644531 141.507812 C 271.566406 140.226562 273.535156 139.585938 275.457031 139.585938 L 275.457031 82.902344 L 188.242188 12.582031 L 101.222656 82.804688 L 101.222656 138.898438 C 107.035156 140.175781 112.84375 143.425781 114.765625 149.878906 L 115.40625 151.160156 L 115.40625 151.800781 L 116.046875 151.800781 L 116.046875 155 L 116.6875 191.738281 C 116.6875 191.738281 116.046875 192.378906 116.046875 193.019531 L 115.40625 194.296875 L 113.484375 196.21875 L 112.84375 196.21875 L 108.953125 195.578125 L 107.035156 194.296875 L 107.035156 193.660156 L 106.394531 193.019531 L 106.394531 192.378906 L 105.753906 191.097656 C 105.753906 190.457031 105.753906 190.457031 105.753906 190.457031 L 105.753906 163.371094 C 105.753906 160.8125 105.753906 160.171875 103.832031 160.171875 C 100.632812 160.171875 101.273438 165.34375 101.273438 168.542969 L 101.273438 193.019531 L 100.632812 194.296875 L 99.351562 195.578125 L 98.710938 195.578125 L 98.070312 196.21875 L 94.871094 196.21875 L 94.230469 195.578125 L 93.589844 195.578125 L 92.308594 194.296875 L 91.667969 193.660156 L 91.667969 191.738281 L 91.027344 191.738281 L 91.027344 163.371094 C 91.027344 160.8125 91.027344 160.171875 89.109375 160.171875 C 87.1875 160.171875 86.546875 161.453125 86.546875 163.371094 L 86.546875 189.816406 C 86.546875 191.738281 87.1875 193.019531 85.90625 194.347656 L 83.988281 195.628906 L 83.347656 196.269531 C 82.707031 196.269531 82.066406 196.269531 81.425781 196.269531 L 79.503906 196.269531 L 79.503906 195.628906 L 78.863281 195.628906 L 77.585938 193.707031 L 76.945312 193.066406 L 76.945312 191.785156 L 76.304688 190.507812 L 76.304688 159.53125 L 76.945312 156.328125 L 76.945312 152.488281 L 77.585938 151.847656 L 77.585938 149.878906 L 78.226562 149.878906 C 80.144531 144.066406 85.957031 140.226562 91.769531 138.898438 L 91.769531 89.945312 L 65.125 110.53125 L 65.125 99.550781 L 91.570312 78.273438 L 91.570312 36.414062 L 101.222656 36.414062 L 101.222656 70.59375 L 188.242188 0.957031 L 275.257812 70.59375 Z M 132.789062 180.804688 L 246.890625 180.804688 L 246.253906 179.523438 C 245.613281 172.433594 244.332031 166.621094 241.722656 160.8125 C 239.160156 154.359375 235.269531 149.1875 230.738281 144.707031 C 225.570312 139.535156 220.449219 135.695312 213.996094 132.445312 C 208.183594 129.882812 201.09375 127.914062 194.003906 127.273438 L 193.363281 126.632812 L 194.003906 126.632812 L 194.003906 125.996094 C 194.003906 125.355469 194.003906 125.355469 194.003906 125.355469 L 194.003906 124.714844 C 194.640625 124.714844 194.640625 124.074219 194.640625 124.074219 C 194.640625 123.433594 194.003906 122.792969 194.003906 122.152344 C 194.003906 121.511719 193.363281 120.871094 192.722656 120.871094 C 192.722656 120.234375 192.082031 119.59375 191.441406 119.59375 C 190.800781 119.59375 190.160156 119.59375 189.519531 119.59375 C 188.878906 119.59375 188.242188 119.59375 187.601562 119.59375 C 186.960938 119.59375 186.960938 120.234375 186.320312 120.871094 C 185.679688 120.871094 185.679688 121.511719 185.039062 122.152344 C 185.039062 122.792969 185.039062 123.433594 185.039062 124.074219 L 185.039062 125.355469 C 185.039062 125.355469 185.039062 125.355469 185.039062 125.996094 L 185.679688 125.996094 L 185.679688 127.273438 C 185.039062 127.273438 185.039062 127.273438 185.039062 127.273438 C 177.949219 127.914062 171.496094 129.835938 165.046875 132.445312 C 159.234375 135.648438 153.421875 139.535156 148.300781 144.707031 C 144.410156 149.238281 140.570312 154.359375 138.007812 160.8125 C 134.808594 166.621094 133.480469 172.433594 132.839844 179.523438 L 132.839844 180.804688 Z M 236.601562 174.355469 C 236.601562 173.074219 235.960938 171.152344 235.320312 169.183594 C 234.679688 167.902344 234.039062 165.980469 233.398438 164.652344 C 232.117188 162.089844 230.839844 159.480469 229.507812 156.921875 C 227.589844 155 226.308594 153.03125 224.335938 151.109375 C 223.699219 150.46875 223.058594 149.828125 222.417969 149.1875 C 222.417969 149.1875 221.777344 148.550781 221.136719 147.910156 C 220.496094 147.269531 219.855469 145.988281 221.136719 144.707031 C 221.777344 144.066406 223.058594 144.066406 224.335938 144.707031 C 224.335938 145.347656 224.976562 145.347656 225.617188 145.988281 C 226.257812 146.628906 226.898438 147.269531 227.539062 147.910156 C 229.460938 149.828125 231.429688 152.4375 233.351562 155 C 234.628906 156.921875 235.910156 159.53125 237.238281 162.730469 C 238.519531 164.011719 239.160156 165.933594 239.800781 167.902344 C 240.441406 169.824219 240.441406 171.792969 241.082031 173.714844 C 241.082031 174.992188 240.441406 176.273438 239.160156 176.273438 C 237.878906 176.273438 236.601562 175.632812 236.601562 174.355469 Z M 212.074219 142.097656 C 211.433594 141.457031 210.796875 141.457031 210.15625 140.816406 C 208.875 140.175781 208.234375 138.898438 208.875 137.617188 C 209.515625 136.976562 210.796875 136.335938 212.074219 136.976562 C 212.714844 136.976562 213.355469 137.617188 214.636719 137.617188 C 215.277344 138.257812 215.917969 138.898438 216.558594 139.535156 C 217.835938 140.175781 217.835938 141.457031 217.195312 142.097656 C 216.558594 143.378906 215.277344 144.019531 214.636719 143.378906 C 213.355469 142.789062 212.714844 142.097656 212.074219 142.097656 Z M 99.941406 194.988281 Z M 77.386719 193.707031 Z M 265.605469 144.066406 Z M 299.734375 182.726562 Z M 256.542969 171.792969 Z M 127.027344 187.257812 L 249.503906 187.257812 L 249.503906 196.269531 L 127.027344 196.269531 Z M 192.769531 77.683594 L 214.046875 77.683594 L 214.046875 98.957031 L 192.769531 98.957031 Z M 165.046875 77.683594 L 186.320312 77.683594 L 186.320312 98.957031 L 165.046875 98.957031 Z M 192.769531 51.238281 L 214.046875 51.238281 L 214.046875 72.511719 L 192.769531 72.511719 Z M 192.769531 51.238281 " fill-opacity="1" fill-rule="nonzero"/></g></g></g></svg>